<svg viewBox="0 0 500 500" xmlns="http://www.w3.org/2000/svg" xmlns:xlink="http://www.w3.org/1999/xlink"><linearGradient id="a" gradientTransform="matrix(250 -250 250 250 250 500)" gradientUnits="userSpaceOnUse" x1="0" x2="1" y1="0" y2="0"><stop offset="0" stop-color="#fe814f"/><stop offset="1" stop-color="#7d8dff"/></linearGradient><path d="m500 75c0-41.394-33.606-75-75-75h-350c-41.394 0-75 33.606-75 75v350c0 41.394 33.606 75 75 75h350c41.394 0 75-33.606 75-75z" fill="url(#a)"/><g fill="#fff"><circle cx="107.53" cy="129.399" r="20.195"/><path d="m170.923 109.205c-11.151 0-20.194 9.043-20.194 20.194s9.043 20.195 20.194 20.195h203.547c11.15 0 20.194-9.044 20.194-20.195s-9.044-20.194-20.194-20.194z" /><circle cx="140.914" cy="209.788" r="20.195"/><path d="m204.307 189.594c-11.151 0-20.195 9.044-20.195 20.194 0 11.151 9.044 20.195 20.195 20.195h170.163c11.15 0 20.194-9.044 20.194-20.195 0-11.15-9.044-20.194-20.194-20.194z" /><circle cx="140.914" cy="370.584" r="20.195"/><path d="m204.307 350.406c-11.151 0-20.195 9.044-20.195 20.195s9.044 20.194 20.195 20.194h170.163c11.15 0 20.194-9.043 20.194-20.194s-9.044-20.195-20.194-20.195z" /><circle cx="107.53" cy="290.177" r="20.195"/><path d="m170.923 270c-11.151 0-20.194 9.044-20.194 20.195 0 11.15 9.043 20.194 20.194 20.194h203.547c11.15 0 20.194-9.044 20.194-20.194 0-11.151-9.044-20.195-20.194-20.195z" /></g></svg>
